<?xml version="1.0" encoding="utf-8"?>
<!-- Generator: Adobe Illustrator 27.5.0, SVG Export Plug-In . SVG Version: 6.00 Build 0)  -->
<svg version="1.1" xmlns="http://www.w3.org/2000/svg" xmlns:xlink="http://www.w3.org/1999/xlink" x="0px" y="0px"
	 viewBox="0 0 512 512" style="enable-background:new 0 0 512 512;" xml:space="preserve">
<g id="_x30_4">
</g>
<g id="_x30_3">
	<g>
		<g>
			<polygon style="fill:#9B82FF;" points="346.189,67.256 479.094,131.695 405.74,336.52 250.321,297.682 			"/>
			<polygon style="fill:#C1B0FF;" points="399.391,313.215 258.406,262.121 261.543,253.469 393.287,301.215 440.893,137.197 
				347.758,109.549 350.381,100.721 452.281,130.977 			"/>
		</g>
		<g>
			<path style="fill:#C1B0FF;" d="M259.598,350.902l-11.506-46.602c0,0,36.934,8.795,31.283-27.035l-53.147,3.445l8.439,94.643
				l118.714-7.191c0,0-60.41,76.813,12.945,86.303l25.893-111.039C392.219,343.426,326.916,323,259.598,350.902z"/>
			<path style="fill:#9B82FF;" d="M281.957,343.301v29.191l71.424-4.33c0,0-60.41,76.813,12.945,86.303l25.893-111.039
				C392.219,343.426,340.664,327.332,281.957,343.301z"/>
			<rect x="287.666" y="341.309" style="fill:#5735DE;" width="4.602" height="30.697"/>
			<rect x="298.117" y="339.685" style="fill:#5735DE;" width="4.602" height="32.32"/>
			
				<rect x="307.6" y="393.015" transform="matrix(0.2727 -0.9621 0.9621 0.2727 -115.1912 638.2479)" style="fill:#5735DE;" width="113.949" height="4.605"/>
			
				<rect x="358.661" y="431.059" transform="matrix(0.2511 -0.968 0.968 0.2511 -155.237 678.6581)" style="fill:#5735DE;" width="4.602" height="17.183"/>
			
				<rect x="380.894" y="346.441" transform="matrix(0.4464 -0.8948 0.8948 0.4464 -103.682 538.2997)" style="fill:#5735DE;" width="4.604" height="13.002"/>
			
				<rect x="371.474" y="385.018" transform="matrix(0.2377 -0.9713 0.9713 0.2377 -97.1286 662.92)" style="fill:#5735DE;" width="4.606" height="16.644"/>
			
				<rect x="374.229" y="371.556" transform="matrix(0.2696 -0.963 0.963 0.2696 -89.4449 639.0334)" style="fill:#5735DE;" width="4.601" height="13.846"/>
			
				<rect x="377.598" y="361.466" transform="matrix(0.3192 -0.9477 0.9477 0.3192 -90.0486 610.5013)" style="fill:#5735DE;" width="4.603" height="12.921"/>
			
				<rect x="367.696" y="394.317" transform="matrix(0.2033 -0.9791 0.9791 0.2033 -99.348 682.9769)" style="fill:#5735DE;" width="4.602" height="16.437"/>
			
				<rect x="363.864" y="406.034" transform="matrix(0.2559 -0.9667 0.9667 0.2559 -127.6528 661.9693)" style="fill:#5735DE;" width="4.607" height="15.74"/>
			
				<rect x="360.669" y="420.499" transform="matrix(0.1375 -0.9905 0.9905 0.1375 -111.7416 729.3925)" style="fill:#5735DE;" width="4.601" height="16.727"/>
			<path style="fill:#5735DE;" d="M234.667,375.353l25.747-1.56c-0.48-6.809-9.021-12.246-19.514-12.246
				c-2.613,0-5.101,0.344-7.379,0.951L234.667,375.353z"/>
		</g>
		<g>
			<path style="fill:#C1B0FF;" d="M202.926,277.266c0,0.855,4.315,104.994,4.315,104.994l101.982,25.027L287.504,512
				c0,0-86.016-3.74-11.508-75.369l-100.974-41.998l10.068-118.527L202.926,277.266z"/>
			<path style="fill:#9B82FF;" d="M245.221,391.582l-18.482,24.559l49.258,20.49C201.488,508.26,287.504,512,287.504,512
				l21.719-104.713L245.221,391.582z"/>
			
				<rect x="231.495" y="404.04" transform="matrix(0.4962 -0.8682 0.8682 0.4962 -228.7675 418.4242)" style="fill:#5735DE;" width="29.352" height="4.601"/>
			
				<rect x="239.061" y="408.15" transform="matrix(0.4242 -0.9056 0.9056 0.4242 -224.6916 467.5139)" style="fill:#5735DE;" width="32.484" height="4.603"/>
			
				<rect x="231.538" y="454.89" transform="matrix(0.2254 -0.9743 0.9743 0.2254 -224.1777 632.4138)" style="fill:#5735DE;" width="108.188" height="4.602"/>
			
				<rect x="298.117" y="413.966" transform="matrix(0.4193 -0.9078 0.9078 0.4193 -206.9726 516.6855)" style="fill:#5735DE;" width="4.603" height="12.343"/>
			
				<rect x="294.768" y="429.11" transform="matrix(0.3389 -0.9408 0.9408 0.3389 -213.2174 567.3022)" style="fill:#5735DE;" width="4.602" height="12.521"/>
			
				<rect x="280.591" y="492.763" transform="matrix(0.0392 -0.9992 0.9992 0.0392 -227.6481 762.9438)" style="fill:#5735DE;" width="4.603" height="14.163"/>
			
				<rect x="284.422" y="475.626" transform="matrix(0.1167 -0.9932 0.9932 0.1167 -225.8567 710.9081)" style="fill:#5735DE;" width="4.602" height="13.595"/>
			
				<rect x="288.074" y="459.255" transform="matrix(0.2098 -0.9778 0.9778 0.2098 -225.996 652.0241)" style="fill:#5735DE;" width="4.601" height="13.137"/>
			
				<rect x="290.054" y="445.222" transform="matrix(0.3152 -0.949 0.949 0.3152 -227.9542 586.4097)" style="fill:#5735DE;" width="4.603" height="11.872"/>
			<path style="fill:#5735DE;" d="M200.338,396.357c0-9.852-9.982-17.834-22.294-17.834c-0.561,0-1.107,0.029-1.659,0.064
				l-1.362,16.045l23.017,9.574C199.498,401.838,200.338,399.178,200.338,396.357z"/>
		</g>
		<g>
			<g>
				<g>
					<polygon style="fill:#3317A3;" points="407.568,376.059 398.537,374.275 405.553,338.787 371.049,337.234 371.459,328.037 
						416.662,330.07 					"/>
					<path style="fill:#C1B0FF;" d="M303.738,223.418c0,0-9.33,19.031-7.893,19.32c1.44,0.285,76.809,8.914,58.111,73.356
						c0,0-26.455-0.838-27.625,9.783c-1.174,10.621,12.666,24.164,35.393,24.164c22.725,0,28.191-19.85,18.123-27.041
						C379.848,323,450.74,215.652,303.738,223.418z"/>
					<path style="fill:#5735DE;" d="M355.699,285.6c1.955,8.436,1.738,18.498-1.742,30.494c0,0-26.455-0.838-27.625,9.783
						c-1.174,10.621,12.666,24.164,35.393,24.164c22.725,0,28.191-19.85,18.123-27.041c0,0,11.373-17.238,15.559-37.4H355.699z"/>
					
						<rect x="372.892" y="274.984" transform="matrix(0.088 -0.9961 0.9961 0.088 50.3699 640.8863)" style="fill:#3317A3;" width="4.602" height="35.902"/>
					
						<rect x="370.571" y="287.218" transform="matrix(0.1207 -0.9927 0.9927 0.1207 26.6204 637.0055)" style="fill:#3317A3;" width="4.606" height="32.517"/>
					<rect x="334.855" y="325.588" style="fill:#3317A3;" width="4.602" height="14.098"/>
					
						<rect x="339.853" y="333.859" transform="matrix(0.9861 -0.1663 0.1663 0.9861 -50.8875 64.7326)" style="fill:#3317A3;" width="42.303" height="4.602"/>
					<rect x="350.312" y="337.578" style="fill:#3317A3;" width="4.604" height="11.684"/>
					
						<rect x="360.956" y="337.542" transform="matrix(0.9777 -0.21 0.21 0.9777 -64.0401 83.9622)" style="fill:#3317A3;" width="4.603" height="11.856"/>
					
						<rect x="370.564" y="334.231" transform="matrix(0.9704 -0.2416 0.2416 0.9704 -71.3183 100.1861)" style="fill:#3317A3;" width="4.603" height="13.347"/>
					<path style="fill:#5735DE;" d="M353.449,226.314c-0.531,1.844-0.836,3.748-0.836,5.715c0,14.426,15.111,26.119,33.754,26.119
						c2.912,0,5.725-0.318,8.418-0.854C390.408,243.705,378.637,231.84,353.449,226.314z"/>
				</g>
				<g>
					<path style="fill:#FF00A2;" d="M295.846,362.699l6.041,56.383l97.811-1.725l12.371-54.658
						C412.068,362.699,364.025,346.301,295.846,362.699z"/>
					
						<rect x="304.317" y="398.562" transform="matrix(0.1366 -0.9906 0.9906 0.1366 -119.8185 664.2529)" style="fill:#3317A3;" width="33.689" height="4.604"/>
					
						<rect x="301.869" y="382.028" transform="matrix(0.9997 -0.0263 0.0263 0.9997 -9.9924 9.4682)" style="fill:#3317A3;" width="105.634" height="4.604"/>
					<polygon style="fill:#3317A3;" points="307.437,376.047 299.402,334.897 336.25,327.502 338.062,336.527 310.193,342.119 
						316.473,374.285 					"/>
					<path style="fill:#FFC23B;" d="M320.977,375.168c0,2.855-4.551,5.178-10.166,5.178c-5.617,0-10.17-2.322-10.17-5.178
						c0-2.859,4.553-5.18,10.17-5.18C316.426,369.988,320.977,372.309,320.977,375.168z"/>
				</g>
			</g>
			<g>
				<g>
					
						<rect x="24.328" y="150.827" transform="matrix(0.1719 -0.9851 0.9851 0.1719 -93.3399 195.2178)" style="fill:#FFC23B;" width="90.235" height="4.602"/>
					<polygon style="fill:#FFC23B;" points="77.213,99.186 71.747,110.877 74.786,122.57 82.103,113.57 82.103,99.186 					"/>
					<path style="fill:#FF00A2;" d="M46.432,179.16v46.602l18.985,4.029l14.384-46.025C61.102,171.969,46.432,179.16,46.432,179.16z
						"/>
					
						<rect x="60.935" y="167.905" transform="matrix(0.1838 -0.983 0.983 0.1838 -129.0667 212.1864)" style="fill:#FFC23B;" width="4.605" height="31.815"/>
					
						<rect x="60.018" y="179.272" transform="matrix(0.1781 -0.984 0.984 0.1781 -136.6237 218.2287)" style="fill:#FFC23B;" width="4.606" height="23.252"/>
				</g>
				<g>
					<path style="fill:#C1B0FF;" d="M168.118,259.711c0,0-22.001,45.453-62.781,47.453c-40.783,2.023-42.806-58.959-42.806-58.959
						s-10.91,16.684-23.867,7.777c-12.955-8.93,0-46.904,0-46.904l15.489,5.066c8.907-3.5,32.841-1.889,32.841-1.889l-12.082,19.563
						c0,0,11.231,34.221,38.548,33.924c27.317-0.277,50.929-31.07,50.929-31.07L168.118,259.711z"/>
					<path style="fill:#5735DE;" d="M112.356,291.353c-12.058,0-22.391,4.404-26.769,10.668c5.287,3.504,11.767,5.539,19.749,5.143
						c11.175-0.545,20.932-4.369,29.22-9.613C129.235,293.764,121.269,291.353,112.356,291.353z"/>
					<path style="fill:#5735DE;" d="M74.912,231.818l12.082-19.563c0,0-23.934-1.611-32.841,1.889l-15.489-5.066
						c0,0-12.955,37.975,0,46.904c12.957,8.906,23.867-7.777,23.867-7.777s0.79,23.602,11.202,40.953l27.118-25.961
						C82.643,255.324,74.912,231.818,74.912,231.818z"/>
					
						<rect x="63.46" y="263.242" transform="matrix(0.7101 -0.7041 0.7041 0.7101 -164.2207 132.2169)" style="fill:#3317A3;" width="29.996" height="4.603"/>
					
						<rect x="60.674" y="248.345" transform="matrix(0.7434 -0.6688 0.6688 0.7434 -149.1968 112.3881)" style="fill:#3317A3;" width="22.413" height="4.603"/>
					<polygon style="fill:#3317A3;" points="64.831,248.26 60.23,248.146 60.817,222.959 65.416,223.072 					"/>
					
						<rect x="33.399" y="242.726" transform="matrix(0.9912 -0.1326 0.1326 0.9912 -32.08 8.4789)" style="fill:#3317A3;" width="28.405" height="4.603"/>
					
						<rect x="46.236" y="219.573" transform="matrix(0.0657 -0.9978 0.9978 0.0657 -188.763 267.641)" style="fill:#3317A3;" width="4.604" height="30.092"/>
					
						<rect x="46.006" y="210.758" transform="matrix(0.0867 -0.9962 0.9962 0.0867 -179.2153 252.8769)" style="fill:#3317A3;" width="4.602" height="26.843"/>
					<path style="fill:#3317A3;" d="M113.109,268.057c-28.415,0.002-39.907-34.076-40.384-35.535l-0.334-1.016l10.611-17.18
						c-15.216-0.678-28.95,0.674-29.821,3.088c0.292,0.91,0.774,1.416,1.597,1.793c4.054,1.855,13.785-0.889,18.961-3.047
						l1.771,4.25c-1.56,0.652-15.45,6.262-22.639,2.982c-1.973-0.895-3.364-2.41-4.019-4.381c-0.532-1.594-0.27-3.189,0.736-4.49
						c4.824-6.242,29.97-5.076,37.559-4.576l3.815,0.254L77.455,232.07c2.055,5.416,13.097,31.383,35.671,31.383
						c0.104,0,0.206,0,0.31,0c25.873-0.277,48.888-29.873,49.117-30.172l3.653,2.803c-0.991,1.291-24.595,31.674-52.721,31.969
						C113.36,268.057,113.233,268.057,113.109,268.057z"/>
				</g>
			</g>
			<polygon style="fill:#C1B0FF;" points="162.652,208.219 174.448,282.435 276.285,285.6 301.887,216.559 			"/>
			<g>
				<path style="fill:#5735DE;" d="M307.353,223.752c-0.863,0-27.617-2.879-27.617-2.012c0,0.859-6.617,53.504-6.617,53.504
					l-92.344-4.314l-2.301-56.381l-26.178-2.307l17.26,76.236l113.056,2.875C282.611,291.353,308.217,223.752,307.353,223.752z"/>
				
					<rect x="164.752" y="277.403" transform="matrix(0.5385 -0.8426 0.8426 0.5385 -154.8466 276.6685)" style="fill:#3317A3;" width="20.827" height="4.603"/>
				
					<rect x="275.565" y="273.949" transform="matrix(0.8615 -0.5077 0.5077 0.8615 -105.3604 180.317)" style="fill:#3317A3;" width="4.602" height="18.699"/>
				<rect x="186.819" y="271.32" style="fill:#3317A3;" width="4.603" height="17.656"/>
				
					<rect x="255.928" y="274.509" transform="matrix(0.9981 -0.0616 0.0616 0.9981 -16.9184 16.442)" style="fill:#3317A3;" width="4.602" height="16.253"/>
				
					<rect x="264.896" y="274.862" transform="matrix(0.9926 -0.1218 0.1218 0.9926 -32.4685 34.6442)" style="fill:#3317A3;" width="4.603" height="16.185"/>
				
					<rect x="281.32" y="254.877" transform="matrix(0.1088 -0.9941 0.9941 0.1088 -9.5646 517.1026)" style="fill:#3317A3;" width="4.604" height="18.018"/>
				
					<rect x="284.05" y="242.524" transform="matrix(0.104 -0.9946 0.9946 0.104 5.0749 511.384)" style="fill:#3317A3;" width="4.602" height="20.702"/>
				
					<rect x="286.376" y="231.917" transform="matrix(0.1026 -0.9947 0.9947 0.1026 16.9411 505.5953)" style="fill:#3317A3;" width="4.603" height="22.982"/>
				
					<rect x="163.35" y="258.159" transform="matrix(0.9961 -0.0881 0.0881 0.9961 -22.2746 16.1497)" style="fill:#3317A3;" width="17" height="4.604"/>
				
					<rect x="161.181" y="248.347" transform="matrix(0.9925 -0.1225 0.1225 0.9925 -29.4254 22.7884)" style="fill:#3317A3;" width="18.79" height="4.6"/>
				
					<rect x="158.679" y="237.724" transform="matrix(0.999 -0.044 0.044 0.999 -10.394 7.6699)" style="fill:#3317A3;" width="20.826" height="4.604"/>
			</g>
			<g>
				<polygon style="fill:#FFFFFF;" points="195.735,259.711 197.461,285.6 248.379,288.19 254.787,261.438 				"/>
				<polygon style="fill:#3317A3;" points="243.526,287.096 239.064,285.961 243.353,269.125 205.516,268.119 205.516,284.451 
					200.913,284.451 200.913,263.387 249.234,264.678 				"/>
				<path style="fill:#FFC23B;" d="M220.043,273.953c0,1.826-2.64,3.313-5.899,3.313c-3.255,0-5.895-1.486-5.895-3.313
					c0-1.828,2.64-3.309,5.895-3.309C217.403,270.645,220.043,272.125,220.043,273.953z"/>
				<path style="fill:#FFC23B;" d="M237.017,273.953c0,1.826-2.642,3.313-5.898,3.313c-3.257,0-5.898-1.486-5.898-3.313
					c0-1.828,2.642-3.309,5.898-3.309C234.375,270.645,237.017,272.125,237.017,273.953z"/>
				<polygon style="fill:#FF00A2;" points="208.969,279.703 219.324,279.703 218.174,285.6 208.969,283.51 				"/>
				<polygon style="fill:#FF00A2;" points="224.312,279.703 234.667,279.703 233.517,285.6 224.312,283.51 				"/>
			</g>
		</g>
		<g>
			<g>
				<path style="fill:#C1B0FF;" d="M317.133,10.87C206.667-25.376,115.185,35.613,106.267,96.885
					c-8.917,61.275,49.192,105.002,49.192,105.002l152.468,10.355C441.984,168.805,427.602,47.119,317.133,10.87z"/>
				<path style="fill:#FFC23B;" d="M317.133,10.87C274.42-3.145,234.55-2.613,201.189,6.846l1.163,62.711l92.343,21.576
					l41.082-72.924C329.904,15.486,323.695,13.025,317.133,10.87z"/>
				<path style="fill:#FFFFFF;" d="M298.959,227.697l-0.979-0.059l-113.232-6.354l-2.192-1.594
					c-2.413-1.754-59-43.582-52.044-96.389c5.878-44.617,43.639-73.447,96.204-73.447c13.547,0,27.974,1.881,42.875,5.594
					c34.238,8.525,58.609,31.738,66.863,63.684c9.463,36.619-3.805,77.191-34.623,105.889L298.959,227.697z M186.357,216.764
					l110.9,6.229l1.438-1.338c29.582-27.547,42.342-66.387,33.303-101.367c-7.818-30.264-30.971-52.266-63.52-60.373
					c-14.538-3.621-28.589-5.455-41.762-5.455c-50.112,0-86.084,27.254-91.642,69.443c-6.602,50.125,47.867,90.377,50.19,92.066
					L186.357,216.764z"/>
				<path style="fill:#FF94C6;" d="M295.559,218.285l-107.59-6.043c0,0-54.659-39.701-48.331-87.738
					c6.329-48.041,54.947-78.246,127.73-60.123C340.146,82.502,349.93,167.654,295.559,218.285z"/>
				<path style="fill:#3317A3;" d="M295.559,218.285c47.348-44.094,46.025-114.338-3.162-143.725
					c-0.525-0.313-1.061-0.621-1.596-0.924c-1.402-0.795-2.826-1.572-4.303-2.303c-0.311-0.154-0.629-0.297-0.943-0.451
					c-1.494-0.713-3.025-1.395-4.596-2.039c-0.365-0.15-0.729-0.307-1.098-0.455c-1.791-0.711-3.625-1.377-5.508-1.99
					c-0.283-0.09-0.568-0.182-0.853-0.271c-1.996-0.631-4.033-1.223-6.133-1.746c-2.266-0.562-4.506-1.08-6.723-1.553
					c-0.078-0.019-0.154-0.029-0.232-0.047c-2.06-0.432-4.099-0.83-6.119-1.184c-0.449-0.082-0.895-0.145-1.344-0.223
					c-1.637-0.275-3.264-0.533-4.871-0.762c-0.593-0.084-1.178-0.15-1.766-0.227c-1.448-0.188-2.889-0.359-4.313-0.508
					c-0.658-0.068-1.309-0.127-1.96-0.184c-1.337-0.123-2.667-0.223-3.982-0.311c-0.686-0.047-1.366-0.082-2.044-0.117
					c-1.265-0.066-2.518-0.113-3.764-0.146c-0.689-0.014-1.378-0.029-2.061-0.037c-1.219-0.012-2.423-0.004-3.622,0.016
					c-0.674,0.012-1.35,0.018-2.018,0.039c-1.195,0.039-2.373,0.098-3.543,0.17c-0.643,0.035-1.291,0.063-1.928,0.109
					c-1.201,0.09-2.379,0.209-3.559,0.332c-0.58,0.057-1.168,0.107-1.742,0.172c-1.321,0.154-2.62,0.344-3.911,0.541
					c-0.403,0.063-0.817,0.111-1.217,0.178c-1.674,0.272-3.322,0.582-4.94,0.928c-0.425,0.086-0.835,0.199-1.257,0.295
					c-1.176,0.264-2.353,0.531-3.5,0.834c-0.648,0.17-1.276,0.359-1.914,0.545c-0.896,0.25-1.795,0.502-2.674,0.781
					c-0.696,0.221-1.375,0.459-2.059,0.693c-0.792,0.271-1.583,0.535-2.358,0.826c-0.706,0.258-1.398,0.539-2.089,0.814
					c-0.725,0.291-1.447,0.58-2.153,0.883c-0.702,0.307-1.392,0.619-2.08,0.934c-0.667,0.314-1.331,0.627-1.985,0.953
					c-0.691,0.34-1.371,0.688-2.045,1.047c-0.62,0.326-1.231,0.662-1.838,1.006c-0.674,0.381-1.346,0.766-2.005,1.16
					c-0.569,0.348-1.126,0.701-1.685,1.055c-0.662,0.426-1.323,0.844-1.964,1.281c-0.517,0.35-1.017,0.721-1.521,1.082
					c-0.654,0.469-1.309,0.938-1.944,1.424c-0.438,0.336-0.857,0.688-1.286,1.033c-0.669,0.537-1.345,1.072-1.989,1.633
					c-0.243,0.207-0.472,0.428-0.711,0.645c-2.511,2.234-4.839,4.621-6.973,7.145c-0.236,0.277-0.482,0.549-0.714,0.832
					c-0.581,0.707-1.132,1.441-1.685,2.174c-0.263,0.348-0.535,0.689-0.789,1.045c-0.526,0.723-1.025,1.469-1.523,2.215
					c-0.249,0.373-0.504,0.746-0.747,1.127c-0.48,0.756-0.939,1.518-1.392,2.295c-0.226,0.385-0.454,0.775-0.673,1.168
					c-0.44,0.789-0.864,1.59-1.275,2.4c-0.195,0.381-0.387,0.768-0.574,1.16c-0.406,0.842-0.799,1.684-1.172,2.541
					c-0.156,0.361-0.308,0.73-0.46,1.098c-0.376,0.898-0.739,1.809-1.078,2.727c-0.115,0.313-0.219,0.625-0.329,0.941
					c-0.35,0.994-0.691,1.992-0.999,3.008c-0.01,0.041-0.021,0.082-0.033,0.119l54.928-28.832l-27.618,28.768
					c0,0,41.632-1.43,65.129-31.342c0,0,15.697,37.971,53.395,36.225L278.01,95.162c0,0,31.623,24.055,18.986,67.467l16.111-13.572
					l-22,68.979L295.559,218.285z"/>
				
					<rect x="234.048" y="24.672" transform="matrix(0.2005 -0.9797 0.9797 0.2005 179.1758 278.1027)" style="fill:#FFFFFF;" width="51.853" height="9.205"/>
				<path style="fill:#3317A3;" d="M211.041,159.234c-3.18,0-5.818-0.816-7.894-2.445c-5.725-4.5-4.565-13.25-4.513-13.617
					l0.428-3.035l12.004,5.4l12.987-37.607l4.351,1.5l-14.632,42.371l-10.591-4.764c0.2,2.059,0.872,4.613,2.823,6.141
					c2.825,2.209,8.031,1.9,15.058-0.895l1.702,4.281C218.28,158.346,214.365,159.234,211.041,159.234z"/>
				<g>
					<path style="fill:#FF00A2;" d="M250.321,159.311c0,4.184-4.041,7.578-9.026,7.578c-4.984,0-9.025-3.395-9.025-7.578
						c0-4.182,4.041-7.572,9.025-7.572C246.28,151.738,250.321,155.129,250.321,159.311z"/>
					<path style="fill:#FF00A2;" d="M269.771,186.738c0,4.18-4.041,7.574-9.025,7.574c-4.985,0-9.027-3.395-9.027-7.574
						c0-4.184,4.042-7.578,9.027-7.578C265.73,179.16,269.771,182.555,269.771,186.738z"/>
					<path style="fill:#FFFFFF;" d="M251.223,188.826l-15.812-24.346c5.109-0.186,11.231-2.996,11.185-15.424
						c0,0,14.545,11.281,17.377,25.664C265.951,184.803,259.738,188.826,251.223,188.826z"/>
					<path style="fill:#3317A3;" d="M250.937,191.111c-3.678,0-7.818-0.717-12.187-2.158l1.437-4.348
						c8.215,2.713,15.735,2.516,19.161-0.496c2.111-1.859,2.779-4.873,1.986-8.957c-1.775-9.141-8.728-17.107-12.977-21.256
						c-0.727,4.93-2.679,8.51-5.83,10.676c-6.167,4.232-14.373,1.121-14.716,0.984l1.659-4.266l-0.829,2.135l0.824-2.135
						c0.063,0.021,6.329,2.367,10.488-0.502c2.773-1.916,4.169-5.865,4.148-11.732l-0.015-4.721l3.717,2.914
						c0.615,0.48,15.104,11.994,18.023,27.029c1.402,7.217-1.103,11.197-3.453,13.268
						C259.684,189.91,255.697,191.111,250.937,191.111z"/>
					
						<rect x="240.929" y="168.817" transform="matrix(0.844 -0.5364 0.5364 0.844 -51.9933 161.1955)" style="fill:#3317A3;" width="20.302" height="2.302"/>
					
						<rect x="248.072" y="160.346" transform="matrix(0.8471 -0.5315 0.5315 0.8471 -55.0348 159.2661)" style="fill:#3317A3;" width="2.302" height="29.831"/>
					
						<rect x="253.474" y="154.264" transform="matrix(0.8477 -0.5304 0.5304 0.8477 -52.3754 161.2329)" style="fill:#3317A3;" width="2.301" height="35.145"/>
				</g>
				<g>
					<path style="fill:#3317A3;" d="M207.931,141.326c-1.581-4.84-4.365-10.744-8.664-11.402c-5.25-0.795-11.362,6.053-13.284,8.76
						l-1.254,1.766l-10.922-6.799l2.432-3.91l7.333,4.564c2.753-3.279,9.353-9.998,16.389-8.93
						c5.311,0.809,9.464,5.691,12.346,14.525L207.931,141.326z"/>
					
						<rect x="183.078" y="123.063" transform="matrix(0.7318 -0.6815 0.6815 0.7318 -37.9867 160.8567)" style="fill:#3317A3;" width="4.604" height="11.258"/>
					
						<rect x="189.813" y="119.752" transform="matrix(0.9263 -0.3768 0.3768 0.9263 -32.7098 81.5467)" style="fill:#3317A3;" width="4.603" height="9.285"/>
				</g>
				<g>
					<path style="fill:#3317A3;" d="M259.268,147.479l-1.109-2.016c-4.285-7.777-8.711-11.727-13.15-11.727
						c-0.008,0-0.017,0-0.023,0c-5.977,0.023-11.302,7.426-12.851,10.275l-4.045-2.191c0.283-0.52,6.981-12.65,16.881-12.684
						c0.014,0,0.026,0,0.039,0c5.785,0,11.17,4.074,16.035,12.117l8.381-4.598l2.213,4.037L259.268,147.479z"/>
					
						<rect x="255.831" y="133.864" transform="matrix(0.7312 -0.6822 0.6822 0.7312 -22.7968 214.4763)" style="fill:#3317A3;" width="9.831" height="4.602"/>
					
						<rect x="251.286" y="129.064" transform="matrix(0.5406 -0.8413 0.8413 0.5406 7.001 275.5533)" style="fill:#3317A3;" width="9.051" height="4.604"/>
				</g>
				<path style="fill:#3317A3;" d="M178.666,118.176l34.85-3.832C213.516,114.344,194.008,100.531,178.666,118.176z"/>
				<path style="fill:#3317A3;" d="M233.901,115.301l32.603,10.93C266.504,126.23,258.258,103.215,233.901,115.301z"/>
				<path style="fill:#FFFFFF;" d="M176.366,75.406c0,0-41.233,56.703,0.191,113.406C176.556,188.813,102.53,141.672,176.366,75.406
					z"/>
				<path style="fill:#FFFFFF;" d="M304.019,102.68c9.272,14.699,12.16,29.531,6.453,33.133c-5.709,3.6-17.854-5.395-27.125-20.094
					c-9.273-14.697-12.16-29.531-6.453-33.131C282.603,78.982,294.748,87.98,304.019,102.68z"/>
			</g>
			<g>
				<polygon style="fill:#5735DE;" points="318.861,210.232 308.791,231.807 150.57,224.324 141.365,188.656 				"/>
				
					<rect x="227.379" y="148.866" transform="matrix(0.0472 -0.9989 0.9989 0.0472 -8.9749 446.7217)" style="fill:#3317A3;" width="4.603" height="158.398"/>
				
					<rect x="214.96" y="197.768" transform="matrix(0.9987 -0.0508 0.0508 0.9987 -10.5316 11.3067)" style="fill:#3317A3;" width="4.601" height="30.317"/>
				
					<rect x="232.859" y="213.395" transform="matrix(0.2058 -0.9786 0.9786 0.2058 -14.9277 412.9998)" style="fill:#3317A3;" width="28.222" height="4.602"/>
				<polygon style="fill:#3317A3;" points="267.623,230.25 263.127,229.26 268.74,203.916 273.236,204.906 				"/>
				
					<rect x="276.191" y="217.139" transform="matrix(0.2762 -0.9611 0.9611 0.2762 -2.5511 435.4922)" style="fill:#3317A3;" width="23.357" height="4.602"/>
				
					<rect x="193.67" y="194.911" transform="matrix(0.9919 -0.1267 0.1267 0.9919 -25.1867 26.541)" style="fill:#3317A3;" width="4.604" height="32.566"/>
				
					<rect x="176.437" y="194.164" transform="matrix(0.9908 -0.1351 0.1351 0.9908 -26.7788 26.0802)" style="fill:#3317A3;" width="4.602" height="32.299"/>
				
					<rect x="158.194" y="191.091" transform="matrix(0.9746 -0.2239 0.2239 0.9746 -42.5888 41.2195)" style="fill:#3317A3;" width="4.601" height="34.693"/>
				
					<rect x="290.643" y="218.143" transform="matrix(0.3128 -0.9498 0.9498 0.3128 -1.4242 438.9182)" style="fill:#3317A3;" width="23.928" height="4.601"/>
			</g>
			<g>
				<path style="fill:#FFC23B;" d="M379.848,165.822c0,14.99-7.533,27.15-16.83,27.15c-9.293,0-16.828-12.16-16.828-27.15
					c0-14.992,7.535-27.146,16.828-27.146C372.314,138.676,379.848,150.83,379.848,165.822z"/>
				<path style="fill:#5735DE;" d="M376.344,167.08c0,10.064-5.299,18.219-11.84,18.219c-6.541,0-11.842-8.154-11.842-18.219
					c0-10.061,5.301-18.217,11.842-18.217C371.045,148.863,376.344,157.02,376.344,167.08z"/>
				<path style="fill:#FFC23B;" d="M371.799,166.445c0,5.365-3.225,9.707-7.197,9.707c-3.979,0-7.201-4.342-7.201-9.707
					c0-5.363,3.223-9.711,7.201-9.711C368.574,156.734,371.799,161.082,371.799,166.445z"/>
				
					<rect x="364.385" y="142.191" transform="matrix(0.9998 -0.0205 0.0205 0.9998 -3.3378 7.5144)" style="fill:#FFC23B;" width="2.302" height="49.345"/>
				
					<rect x="362.371" y="151.457" transform="matrix(0.0836 -0.9965 0.9965 0.0836 168.0419 514.0784)" style="fill:#FFC23B;" width="2.303" height="28.437"/>
				
					<rect x="357.672" y="148.972" transform="matrix(0.6689 -0.7434 0.7434 0.6689 1.8618 318.8272)" style="fill:#FFC23B;" width="2.301" height="16.704"/>
				
					<rect x="363.992" y="157.44" transform="matrix(0.6332 -0.774 0.774 0.6332 12.8187 344.2303)" style="fill:#FFC23B;" width="11.141" height="2.303"/>
				
					<rect x="348.767" y="173.492" transform="matrix(0.6066 -0.795 0.795 0.6066 2.2094 353.7492)" style="fill:#FFC23B;" width="19.581" height="2.301"/>
				
					<rect x="369.724" y="167.412" transform="matrix(0.9316 -0.3635 0.3635 0.9316 -38.3072 146.7754)" style="fill:#FFC23B;" width="2.302" height="15.54"/>
			</g>
		</g>
	</g>
</g>
<g id="_x30_2">
</g>
<g id="_x30_1">
</g>
<g id="PREVIEW">
</g>
</svg>
